<?xml version="1.0" encoding="UTF-8"?>
<svg width="56pt" height="56pt" version="1.1" viewBox="0 0 128 128" xmlns="http://www.w3.org/2000/svg">
 <style>
   .st1 {
      fill: #00b4d8;
      stroke: #00b4d8;
  }

  .st2 {
     fill: #0096c7;
     stroke: #0096c7;
  }

  .st3 {
  fill: #0077b6;
  stroke: #0077b6;
  }

  .st4 {
  fill: #023e8a;
  stroke: #023e8a;
  }

  .st5 {
  fill: #03045e;
  stroke: #03045e;
  }
 </style>
 <g>
  <path class="st1" d="m37.918 17.785c3.7188 5.3125-4.25 10.895-7.9688 5.582-3.7227-5.3125 4.2461-10.895 7.9688-5.582"/>
  <path class="st1" d="m98.426 104.18c3.7188 5.3125-4.25 10.895-7.9688 5.582s4.25-10.891 7.9688-5.582"/>
  <path class="st1" d="m18.32 37.133c5.8789 2.7422 1.7656 11.559-4.1094 8.8164-5.8789-2.7383-1.7656-11.555 4.1094-8.8164"/>
  <path class="st1" d="m114.07 81.676c5.8789 2.7422 1.7695 11.559-4.1094 8.8164-5.8789-2.7383-1.7656-11.555 4.1094-8.8164"/>
  <path class="st1" d="m16.363 67.934c0.5625 6.4609-9.1289 7.3086-9.6914 0.84766-0.56641-6.4609 9.125-7.3086 9.6914-0.84766"/>
  <path class="st1" d="m121.59 58.836c0.56641 6.4609-9.125 7.3086-9.6914 0.84766-0.5625-6.457 9.1289-7.3047 9.6914-0.84766"/>
  <path class="st1" d="m24.871 91.32c3.7188 5.3125-4.25 10.895-7.9688 5.582-3.7227-5.3164 4.2461-10.895 7.9688-5.582"/>
  <path class="st1" d="m110.21 37.504c2.1758-1.5352 2.6875-4.6094 1.1523-6.7852s-4.6094-2.6875-6.7852-1.1523-2.6875 4.6094-1.1523 6.7852c1.5391 2.1758 4.4805 2.6875 6.7852 1.1523z"/>
  <path class="st1" d="m43.902 107.14c-2.4336-1.1523-5.375-0.12891-6.5273 2.3047s-0.12891 5.375 2.3047 6.5273c2.4336 1.1523 5.375 0.12891 6.5273-2.3047 1.1523-2.4336 0.12891-5.375-2.3047-6.5273z"/>
  <path class="st1" d="m84.352 20.352c2.4336 1.1523 5.375 0.12891 6.5273-2.3047s0.12891-5.375-2.3047-6.5273c-2.5586-1.1523-5.375 0-6.5273 2.4336-1.1523 2.4297-0.125 5.375 2.3047 6.3984z"/>
  <path class="st1" d="m68.352 111.49c-2.6875 0.25781-4.7344 2.5586-4.4805 5.2461 0.25781 2.6875 2.5586 4.7344 5.2461 4.4805 2.6875-0.25781 4.7344-2.5586 4.4805-5.2461s-2.5586-4.7383-5.2461-4.4805z"/>
  <path class="st1" d="m64.367 10.844c0.56641 6.457-9.125 7.3047-9.6914 0.84766-0.5625-6.4609 9.1289-7.3086 9.6914-0.84766"/>
  <path class="st2" d="m33.527 32.918c4.0508 3.4023-1.0508 9.4805-5.1016 6.0781-4.0547-3.3984 1.0469-9.4805 5.1016-6.0781"/>
  <path class="st2" d="m99.848 88.641c4.0547 3.4023-1.0469 9.4805-5.1016 6.0781-4.0508-3.3984 1.0508-9.4805 5.1016-6.0781"/>
  <path class="st2" d="m22.223 52.367c5.207 0.91797 3.832 8.7344-1.3789 7.8125-5.2109-0.91797-3.832-8.7344 1.3789-7.8125"/>
  <path class="st2" d="m107.45 67.445c5.2109 0.91797 3.832 8.7344-1.3789 7.8164-5.2109-0.91797-3.832-8.7344 1.3789-7.8164"/>
  <path class="st2" d="m27.145 77.242c1.8086 4.9727-5.6484 7.6875-7.457 2.7148-1.8086-4.9688 5.6484-7.6836 7.457-2.7148"/>
  <path class="st2" d="m106.24 52.734c2.0469-0.76953 3.1992-3.0703 2.4336-5.1211-0.76953-2.0469-3.0703-3.1992-5.1211-2.4336-2.0469 0.76953-3.1992 3.0703-2.4336 5.1211 0.64453 2.1797 2.9453 3.2031 5.1211 2.4336z"/>
  <path class="st2" d="m38.91 93.953c-1.6641-1.4062-4.2227-1.1523-5.6328 0.51172-1.4062 1.6641-1.1523 4.2227 0.51172 5.6328 1.6641 1.4062 4.2227 1.1523 5.6328-0.51172 1.4102-1.6641 1.1523-4.2266-0.51172-5.6328z"/>
  <path class="st2" d="m89.344 33.664c1.6641 1.4062 4.2227 1.1523 5.6328-0.51172 1.4062-1.6641 1.1523-4.2227-0.51172-5.6328-1.6641-1.4062-4.2227-1.1523-5.6328 0.51172-1.4062 1.6641-1.1523 4.2266 0.51172 5.6328z"/>
  <path class="st2" d="m57.34 102.59c5.2109 0.91797 3.832 8.7344-1.375 7.8164-5.2109-0.91797-3.8359-8.7344 1.375-7.8164"/>
  <path class="st2" d="m72.32 17.215c5.2109 0.92188 3.8359 8.7344-1.375 7.8164-5.2109-0.91797-3.832-8.7344 1.375-7.8164"/>
  <path class="st2" d="m77.566 100.73c-2.0469 0.76953-3.1992 3.0703-2.4336 5.1211 0.76953 2.0469 3.0703 3.1992 5.1211 2.4336 2.0469-0.76953 3.1992-3.0703 2.4336-5.1211-0.76562-2.1758-3.0703-3.1992-5.1211-2.4336z"/>
  <path class="st2" d="m52.988 21.703c1.8125 4.9727-5.6445 7.6875-7.457 2.7148-1.8086-4.9727 5.6484-7.6836 7.457-2.7148"/>
  <path class="st3" d="m46.48 32.797c2.5469 3.6328-2.9062 7.4531-5.4531 3.8164-2.543-3.6367 2.9062-7.4531 5.4531-3.8164"/>
  <path class="st3" d="m87.25 91.016c2.5469 3.6328-2.9062 7.4531-5.4492 3.8164-2.5469-3.6328 2.9062-7.4531 5.4492-3.8164"/>
  <path class="st3" d="m33.363 45.758c4.0195 1.875 1.207 7.9062-2.8125 6.0312-4.0234-1.875-1.2109-7.9062 2.8125-6.0312"/>
  <path class="st3" d="m97.734 75.84c4.0195 1.875 1.207 7.9062-2.8125 6.0312-4.0234-1.875-1.2109-7.9062 2.8125-6.0312"/>
  <path class="st3" d="m32.121 66.652c0.38672 4.4219-6.2461 5.0039-6.6328 0.58203s6.2461-5 6.6328-0.58203"/>
  <path class="st3" d="m102.77 60.387c0.38672 4.418-6.2461 5-6.6328 0.57812s6.2461-5 6.6328-0.57812"/>
  <path class="st3" d="m37.773 82.203c2.543 3.6328-2.9102 7.4531-5.4531 3.8164-2.5469-3.6328 2.9062-7.4531 5.4531-3.8164"/>
  <path class="st3" d="m95.871 41.602c-1.0234-1.5352-3.0703-1.793-4.6094-0.76953-1.5352 1.0234-1.793 3.0703-0.76953 4.6094 1.0234 1.5352 3.0703 1.793 4.6094 0.76953 1.5391-1.1562 1.793-3.2031 0.76953-4.6094z"/>
  <path class="st3" d="m50.594 92.953c4.0195 1.875 1.207 7.9062-2.8125 6.0312-4.0234-1.875-1.2109-7.9062 2.8125-6.0312"/>
  <path class="st3" d="m80.5 28.641c4.0234 1.8789 1.2109 7.9102-2.8125 6.0352s-1.207-7.9102 2.8125-6.0352"/>
  <path class="st3" d="m66.945 95.871c-1.793 0.12891-3.1992 1.793-2.9453 3.5859 0.12891 1.793 1.793 3.1992 3.5859 2.9453 1.793-0.12891 3.1992-1.793 2.9453-3.5859-0.13281-1.793-1.7969-3.0742-3.5859-2.9453z"/>
  <path class="st3" d="m60.801 25.215c-1.793 0.12891-3.1992 1.793-2.9453 3.5859 0.12891 1.793 1.793 3.1992 3.5859 2.9453 1.793-0.12891 3.1992-1.793 2.9453-3.5859-0.25781-1.793-1.793-3.1992-3.5859-2.9453z"/>
  <path class="st4" d="m44.23 43.754c2.6133 2.1953-0.67578 6.1172-3.293 3.9219-2.6133-2.1914 0.67969-6.1133 3.293-3.9219"/>
  <path class="st4" d="m87.234 79.875c2.6172 2.1953-0.67578 6.1172-3.2891 3.9219-2.6133-2.1914 0.67578-6.1133 3.2891-3.9219"/>
  <path class="st4" d="m36.879 56.391c3.3633 0.59375 2.4727 5.6367-0.88672 5.043-3.3633-0.59375-2.4727-5.6367 0.88672-5.043"/>
  <path class="st4" d="m92.301 66.195c3.3633 0.59375 2.4727 5.6367-0.88672 5.043-3.3633-0.59375-2.4727-5.6367 0.88672-5.043"/>
  <path class="st4" d="m40.148 72.469c1.168 3.207-3.6445 4.957-4.8125 1.75-1.168-3.207 3.6445-4.9609 4.8125-1.75"/>
  <path class="st4" d="m92.887 53.285c1.168 3.2109-3.6445 4.9609-4.8125 1.7539-1.168-3.207 3.6445-4.9609 4.8125-1.7539"/>
  <path class="st4" d="m47.77 83.402c2.6133 2.1914-0.67578 6.1133-3.2891 3.9219-2.6172-2.1953 0.67578-6.1172 3.2891-3.9219"/>
  <path class="st4" d="m84.223 43.902c0.89453-1.1523 0.76953-2.6875-0.38281-3.7109-1.1523-0.89453-2.6875-0.76953-3.7109 0.38281-0.89453 1.1523-0.76953 2.6875 0.38281 3.7109 1.1523 0.89844 2.8164 0.76953 3.7109-0.38281z"/>
  <path class="st4" d="m59.762 88.945c3.3633 0.59375 2.4727 5.6367-0.88672 5.043-3.3633-0.59375-2.4727-5.6367 0.88672-5.043"/>
  <path class="st4" d="m69.414 33.633c3.3594 0.59375 2.4727 5.6367-0.89062 5.043-3.3594-0.58984-2.4727-5.6328 0.89062-5.043"/>
  <path class="st4" d="m76.148 89.371c1.168 3.207-3.6445 4.957-4.8086 1.75-1.168-3.207 3.6406-4.957 4.8086-1.75"/>
  <path class="st4" d="m56.922 36.508c1.168 3.207-3.6406 4.957-4.8086 1.75-1.168-3.207 3.6445-4.9609 4.8086-1.75"/>
  <path class="st5" d="m53.348 44.773c1.5664 2.2344-1.7891 4.5859-3.3555 2.3477-1.5664-2.2344 1.7891-4.5859 3.3555-2.3477"/>
  <path class="st5" d="m78.211 80.398c1.5664 2.2383-1.7891 4.5859-3.3555 2.3477-1.5664-2.2344 1.7891-4.5859 3.3555-2.3477"/>
  <path class="st5" d="m45.336 52.824c2.4766 1.1523 0.74219 4.8633-1.7305 3.7109-2.4766-1.1523-0.74609-4.8672 1.7305-3.7109"/>
  <path class="st5" d="m84.676 71.09c2.4766 1.1562 0.74609 4.8672-1.7305 3.7148-2.4766-1.1562-0.74219-4.8672 1.7305-3.7148"/>
  <path class="st5" d="m44.535 65.488c0.23828 2.7188-3.8438 3.0781-4.082 0.35547-0.23828-2.7188 3.8438-3.0781 4.082-0.35547"/>
  <path class="st5" d="m87.805 61.773c0.23828 2.7227-3.8438 3.0781-4.082 0.35937-0.23828-2.7227 3.8438-3.0781 4.082-0.35937"/>
  <path class="st5" d="m48.043 75.121c1.5664 2.2383-1.7891 4.5859-3.3555 2.3477-1.5664-2.2344 1.7891-4.5859 3.3555-2.3477"/>
  <path class="st5" d="m83.07 52.992c0.89453-0.64063 1.1523-1.9219 0.51172-2.8164s-1.9219-1.1523-2.8164-0.51172c-0.89453 0.64063-1.1523 1.9219-0.51172 2.8164s1.9219 1.1523 2.8164 0.51172z"/>
  <path class="st5" d="m55.789 81.66c2.4727 1.1523 0.74219 4.8633-1.7305 3.7109-2.4766-1.1523-0.74609-4.8672 1.7305-3.7109"/>
  <path class="st5" d="m74.23 42.258c2.4727 1.1562 0.74219 4.8672-1.7305 3.7148-2.4766-1.1562-0.74609-4.8672 1.7305-3.7148"/>
  <path class="st5" d="m68.082 85.195c0.23828 2.7227-3.8398 3.0781-4.0781 0.35938-0.23828-2.7227 3.8438-3.0781 4.0781-0.35938"/>
  <path class="st5" d="m64.242 41.938c0.23828 2.7188-3.8398 3.0781-4.0781 0.35547-0.23828-2.7188 3.8398-3.0742 4.0781-0.35547"/>
 </g>
</svg>
